<?xml version="1.0" encoding="iso-8859-1"?>
<!-- Generator: Adobe Illustrator 19.0.0, SVG Export Plug-In . SVG Version: 6.00 Build 0)  -->
<svg version="1.1" id="Capa_1" xmlns="http://www.w3.org/2000/svg" xmlns:xlink="http://www.w3.org/1999/xlink" x="0px" y="0px"
	 viewBox="0 0 512 512" style="enable-background:new 0 0 512 512;" xml:space="preserve">
<g>
	<g transform="translate(1 1)">
		<path style="fill:#00BCD4;" d="M502.467,41.667v307.2c-0.055,18.828-15.305,34.078-34.133,34.133h-108.8L255,502.467L150.467,383
			h-108.8c-18.828-0.055-34.078-15.305-34.133-34.133v-307.2C7.588,22.838,22.838,7.588,41.667,7.533h426.667
			C487.162,7.588,502.412,22.838,502.467,41.667z"/>
		<path style="fill:#00838F;" d="M502.467,41.667v307.2c-0.055,18.828-15.305,34.078-34.133,34.133h-25.6
			c18.828-0.055,34.078-15.305,34.133-34.133v-307.2c-0.055-18.828-15.305-34.078-34.133-34.133h25.6
			C487.162,7.588,502.412,22.838,502.467,41.667z"/>
		<path style="fill:#C52828;" d="M350.061,203.459c-7.471-12.334-16.995-23.3-28.16-32.427c-0.023,0-0.045-0.008-0.061-0.024
			c-0.016-0.016-0.025-0.038-0.024-0.061c-24.507-21.595-38.684-52.586-38.997-85.248c0-1.536,0-2.987,0.085-4.437
			c0.487-10.572,2.44-21.026,5.803-31.061c-9.688,4.847-18.744,10.865-26.965,17.92c-8.546,7.255-16.067,15.638-22.357,24.917
			c-12.426,18.198-19.195,39.662-19.456,61.696c-0.071,0.394-0.099,0.795-0.085,1.195c0.04,21.234,6.138,42.015,17.579,59.904
			c1.451,2.133,2.901,4.352,4.437,6.571c-3.595-1.939-7.046-4.135-10.325-6.571c-17.495-12.258-28.751-31.558-30.805-52.821
			c-1.024,0.597-2.133,1.195-3.157,1.877c-19.869,11.386-35.073,29.431-42.923,50.944c-3.367,9.271-5.071,19.064-5.035,28.928
			c0,49.323,41.13,89.856,93.952,94.976c3.797,0.414,7.615,0.613,11.435,0.597c5.021-0.007,10.036-0.321,15.019-0.939
			c37.416-4.076,69.701-28.07,84.395-62.72C363.691,252.8,362.102,226.067,350.061,203.459z"/>
		<path style="fill:#F44335;" d="M337.773,244.76c-0.011,10.915-2.036,21.734-5.973,31.915
			c-14.694,34.65-46.979,58.644-84.395,62.72c-1.28,0.171-2.56,0.256-3.84,0.341c-52.821-5.12-93.952-45.653-93.952-94.976
			c-0.037-9.864,1.668-19.657,5.035-28.928c7.85-21.513,23.054-39.558,42.923-50.944c1.024-0.683,2.133-1.28,3.157-1.877
			c2.054,21.263,13.31,40.563,30.805,52.821c3.279,2.436,6.73,4.632,10.325,6.571c-1.536-2.219-2.987-4.437-4.437-6.571
			c-11.44-17.889-17.539-38.67-17.579-59.904c-0.014-0.4,0.014-0.801,0.085-1.195c0.261-22.034,7.03-43.498,19.456-61.696
			c6.29-9.28,13.811-17.662,22.357-24.917c-0.783,4.342-1.267,8.733-1.451,13.141c-0.085,1.451-0.085,2.901-0.085,4.437
			c0.314,32.662,14.49,63.653,38.997,85.248c0,0.023,0.008,0.045,0.024,0.061c0.016,0.016,0.038,0.025,0.061,0.024
			c11.165,9.126,20.689,20.093,28.16,32.427C334.221,216.172,337.767,230.355,337.773,244.76z"/>
	</g>
	<g>
		<path d="M469.333,0H42.667C19.114,0.028,0.028,19.114,0,42.667v307.2c0.028,23.553,19.114,42.639,42.667,42.667h104.928
			l101.985,116.554C251.2,510.938,253.54,512,256,512c2.46,0,4.8-1.062,6.421-2.912l101.985-116.554h104.928
			c23.553-0.028,42.639-19.114,42.667-42.667v-307.2C511.972,19.114,492.886,0.028,469.333,0z M494.933,349.867
			c-0.015,14.132-11.468,25.585-25.6,25.6h-89.994l2.548-2.912c2.008-2.294,2.64-5.485,1.657-8.371
			c-0.983-2.886-3.43-5.029-6.421-5.621c-2.991-0.592-6.07,0.456-8.078,2.75L256,490.508L142.954,361.313
			c-2.008-2.294-5.088-3.342-8.078-2.75c-2.991,0.592-5.438,2.735-6.421,5.621c-0.983,2.886-0.351,6.077,1.657,8.371l2.548,2.912
			H42.667c-14.132-0.015-25.585-11.468-25.6-25.6v-307.2c0.015-14.132,11.468-25.585,25.6-25.6h426.667
			c14.132,0.015,25.585,11.468,25.6,25.6V349.867z"/>
		<path d="M328.804,165.837l-0.225-0.212c-22.79-19.944-35.962-48.683-36.192-78.967c0-1.354-0.004-2.637,0.067-4.008
			c0.388-9.767,2.187-19.427,5.342-28.679c1.125-3.278,0.157-6.91-2.451-9.193c-2.608-2.282-6.337-2.761-9.436-1.211
			c-21.178,10.465-39.308,26.203-52.646,45.7c-13.209,19.445-20.461,42.321-20.867,65.825c-0.066,0.599-0.095,1.202-0.088,1.804
			c0.002,8.471,0.916,16.917,2.724,25.192c-2.609-5.979-4.232-12.34-4.807-18.838c-0.243-2.871-1.919-5.426-4.456-6.793
			c-2.537-1.366-5.592-1.36-8.123,0.017c-23.221,12.246-41.046,32.707-49.994,57.387l-0.023,0.038l-0.028,0.088l-0.01,0.024
			l-0.002,0.012c-3.672,10.191-5.538,20.943-5.515,31.775c0,57.383,51.109,104.066,113.925,104.066
			c5.428,0.017,10.85-0.337,16.229-1.058l0.03-0.01c40.491-4.356,75.39-30.43,91.049-68.023c4.391-11.137,6.636-23.004,6.617-34.975
			c0.008-15.815-3.879-31.389-11.317-45.346C350.707,187.309,340.629,175.604,328.804,165.837z M347.421,274.542
			c-13.409,31.826-43.101,53.811-77.454,57.35l-0.034,0.012l-0.053-0.003c-4.6,0.617-9.238,0.918-13.879,0.9
			c-53.408,0-96.858-39.029-96.858-87c-0.025-8.887,1.508-17.709,4.529-26.067l0.009-0.06l0.029-0.053
			c6.04-16.858,17.152-31.432,31.808-41.721c5.074,18.444,16.325,34.587,31.872,45.732l0.024,0.027l0.047,0.03l0.036,0.028
			l0.034,0.016c3.605,2.675,7.408,5.074,11.374,7.176c3.506,1.857,7.829,1.052,10.432-1.941c2.604-2.993,2.801-7.386,0.476-10.601
			c-1.458-2.017-2.779-4.037-4.104-6.054l-0.039-0.06l-0.003-0.006c-10.472-16.348-16.152-35.304-16.396-54.717
			c0.117-0.552,0.179-1.115,0.183-1.679c0.261-20.364,6.506-40.201,17.958-57.042c7.887-11.596,17.783-21.689,29.221-29.804
			c-0.637,4.256-1.046,8.542-1.225,12.842c-0.083,1.575-0.087,3.15-0.087,4.813c0.202,35.05,15.366,68.344,41.675,91.504
			l0.192,0.175v0.004c10.403,8.492,19.307,18.669,26.342,30.108c6.128,11.496,9.332,24.323,9.329,37.35
			C352.875,255.638,351.03,265.39,347.421,274.542z"/>
	</g>
</g>
<g>
</g>
<g>
</g>
<g>
</g>
<g>
</g>
<g>
</g>
<g>
</g>
<g>
</g>
<g>
</g>
<g>
</g>
<g>
</g>
<g>
</g>
<g>
</g>
<g>
</g>
<g>
</g>
<g>
</g>
</svg>

